<?xml version="1.0" standalone="no"?>
<!DOCTYPE svg PUBLIC "-//W3C//DTD SVG 20010904//EN"
 "http://www.w3.org/TR/2001/REC-SVG-20010904/DTD/svg10.dtd">
<svg version="1.0" xmlns="http://www.w3.org/2000/svg"
 width="400.000000pt" height="400.000000pt" viewBox="0 0 400.000000 400.000000"
 preserveAspectRatio="xMidYMid meet">
<metadata>
Created by potrace 1.14, written by Peter Selinger 2001-2017
</metadata>
<g transform="translate(0.000000,400.000000) scale(0.100000,-0.100000)"
fill="#000000" stroke="none">
<path d="M0 2000 l0 -2000 2000 0 2000 0 0 2000 0 2000 -2000 0 -2000 0 0
-2000z m1443 1056 c27 -73 52 -160 57 -200 12 -93 15 -101 46 -103 24 -1 25 1
20 30 -4 18 -9 60 -13 94 -5 55 -2 67 27 122 18 34 68 98 110 144 84 90 102
133 79 189 -14 33 -6 47 19 31 13 -8 16 -21 14 -57 l-4 -48 40 27 c23 15 46
24 51 20 17 -10 13 -55 -9 -102 -24 -55 -34 -56 -15 -2 l15 41 -46 -51 c-25
-28 -58 -75 -72 -104 -14 -28 -29 -53 -34 -55 -4 -2 -8 -9 -8 -16 0 -7 -11
-27 -25 -46 -14 -19 -25 -30 -25 -25 0 17 -31 -35 -33 -54 -1 -11 -4 -18 -8
-15 -8 5 -22 -63 -15 -75 8 -12 89 11 101 29 10 16 12 21 14 55 1 15 3 17 10
7 6 -10 12 0 19 30 13 49 47 130 37 88 -3 -14 -16 -62 -29 -107 l-23 -81 33 5
c26 4 44 -1 84 -27 27 -18 56 -30 64 -27 7 3 16 26 19 51 15 106 123 301 182
328 28 13 48 1 70 -41 15 -31 28 -135 20 -162 -9 -27 -25 -13 -25 22 0 16 -4
29 -10 29 -5 0 -10 7 -10 15 0 8 -6 12 -14 9 -20 -8 -35 -72 -32 -146 1 -37
-1 -65 -5 -63 -10 7 -31 124 -24 135 3 6 -1 13 -10 16 -9 4 -14 13 -11 21 4
11 1 11 -14 3 -11 -6 -20 -13 -20 -16 0 -3 5 -2 12 2 7 5 8 3 4 -5 -5 -7 -14
-10 -21 -8 -8 4 -17 -10 -25 -36 -7 -23 -18 -55 -25 -72 -23 -53 -21 -61 24
-105 40 -39 45 -41 67 -30 13 7 28 25 33 39 9 26 9 26 10 -7 1 -30 3 -32 29
-26 15 4 35 11 45 16 21 11 40 1 33 -18 -3 -8 0 -13 6 -11 6 1 20 -13 30 -31
l20 -32 -22 -18 c-21 -17 -20 -17 21 -17 36 0 45 5 68 37 26 37 46 48 89 48
32 0 80 -26 85 -47 17 -63 17 -73 0 -74 -17 -1 -17 -2 0 -6 29 -8 16 -38 -18
-41 -17 -2 -34 -10 -38 -18 -10 -17 -44 -18 -50 -1 -3 8 -7 7 -12 -5 -4 -10 0
-23 12 -35 16 -16 22 -17 43 -6 38 19 59 16 72 -12 6 -14 14 -25 18 -25 4 0 6
-11 5 -25 -2 -14 1 -23 6 -19 5 3 9 11 9 18 0 20 46 58 67 54 10 -2 22 -16 27
-34 l9 -30 53 34 c46 29 52 37 43 53 -11 21 1 25 19 7 16 -16 128 84 116 104
-3 4 1 5 9 2 19 -7 61 46 48 59 -7 7 -17 4 -31 -8 -18 -17 -21 -17 -38 -2 -12
11 -26 14 -42 9 -23 -6 -23 -7 9 -12 52 -8 48 -25 -6 -25 -27 0 -59 -4 -73 -9
-25 -9 -25 -9 -6 13 19 21 19 21 0 21 -10 0 -37 -12 -59 -25 -40 -25 -36 -31
18 -27 9 1 17 -2 17 -6 0 -5 -18 -9 -41 -11 -41 -2 -74 13 -63 30 3 5 -3 9
-13 9 -15 0 -16 2 -3 10 9 5 17 5 20 0 6 -10 70 9 70 21 0 11 -76 19 -111 12
-27 -5 -31 -4 -26 10 7 19 -4 22 -20 6 -8 -8 -19 -6 -41 7 -25 14 -29 21 -21
36 6 11 9 33 7 51 -3 28 -6 32 -30 30 -17 -1 -28 3 -28 11 0 13 25 71 92 216
51 109 60 140 42 140 -8 0 -13 -4 -10 -8 3 -5 -8 -8 -23 -7 -22 1 -28 -2 -24
-13 5 -11 1 -13 -14 -8 -15 5 -32 -4 -64 -35 -24 -23 -37 -36 -28 -30 9 6 25
9 35 5 16 -5 16 -4 4 5 -14 10 -7 16 15 11 5 -1 7 2 3 6 -9 8 9 34 23 34 5 0
-1 -16 -13 -36 -11 -20 -26 -33 -33 -30 -7 2 -21 -4 -31 -15 -24 -26 -99 -69
-122 -69 -20 0 -55 -32 -47 -43 3 -4 2 -5 -2 -2 -3 3 -17 -4 -29 -16 -16 -15
-24 -17 -29 -8 -5 6 -1 15 7 20 9 5 21 22 28 38 7 17 37 49 68 73 101 76 266
188 279 188 15 0 33 -32 33 -58 0 -11 -20 -73 -45 -139 -43 -111 -68 -223 -50
-223 5 0 34 20 64 44 31 24 88 59 126 79 91 45 168 103 283 210 100 93 128
105 156 65 11 -16 16 -46 16 -103 0 -223 -74 -395 -230 -538 l-74 -67 36 0
c20 0 40 -5 43 -10 4 -6 30 -22 58 -36 l51 -26 -37 -19 c-20 -11 -44 -30 -53
-44 -9 -13 -40 -36 -69 -50 -44 -22 -63 -25 -126 -23 -73 3 -74 4 -89 35 -18
39 -23 40 -40 8 -13 -25 -30 -34 -30 -16 0 5 -27 7 -61 4 -50 -5 -61 -3 -57 8
2 8 14 15 26 17 11 2 26 10 34 19 12 14 9 15 -22 10 -40 -8 -100 21 -100 49 0
22 -38 9 -69 -23 -33 -34 -81 -54 -104 -42 -26 15 -126 -7 -153 -32 -17 -16
-30 -20 -48 -15 -15 3 -26 11 -26 16 0 14 18 12 23 -2 7 -20 16 -5 23 39 6 39
5 41 -15 36 -25 -6 -73 15 -65 29 3 4 0 8 -6 8 -15 0 -6 -38 22 -101 19 -41
25 -45 59 -48 29 -1 40 3 48 18 13 23 52 33 123 33 56 -1 70 -10 86 -58 11
-35 -5 -87 -32 -97 -9 -4 -15 -12 -14 -19 2 -8 -9 -14 -28 -16 -18 -2 -40 -12
-50 -23 -10 -11 -29 -19 -48 -18 l-31 1 35 10 c27 8 31 12 19 19 -11 6 -30 2
-58 -12 -24 -11 -48 -18 -54 -16 -7 3 -1 9 12 14 15 6 20 12 13 17 -6 4 -9 13
-5 22 8 21 -38 14 -62 -10 -15 -14 -16 -19 -5 -26 10 -6 6 -11 -16 -16 -16 -4
-33 -10 -39 -14 -5 -3 -23 -7 -39 -8 -16 -1 -32 -5 -35 -8 -3 -3 26 -3 65 1
60 6 72 4 77 -9 6 -15 -4 -21 -27 -17 -4 1 -13 -3 -20 -8 -6 -5 -35 -13 -64
-17 -41 -5 -52 -10 -52 -25 0 -15 5 -17 29 -13 16 3 37 2 47 -4 15 -8 12 -14
-27 -42 -24 -17 -61 -41 -82 -52 -38 -19 -39 -19 -33 0 4 13 1 22 -9 26 -9 3
-13 2 -10 -3 3 -6 -12 -10 -33 -9 -28 0 -46 -7 -67 -26 -15 -14 -37 -27 -49
-28 -12 0 -33 -2 -47 -3 -14 -1 -32 -6 -40 -11 -8 -4 -24 -7 -37 -5 -13 1 -25
-4 -28 -14 -5 -11 -14 -15 -30 -11 -12 3 -24 2 -26 -3 -2 -5 -12 -3 -23 5 -19
15 -18 15 19 12 27 -2 41 2 44 11 4 11 -5 12 -40 7 -41 -6 -47 -4 -62 19 -14
21 -20 24 -36 15 -11 -6 -20 -17 -20 -24 0 -23 -28 -26 -78 -9 -51 17 -134 24
-124 9 10 -17 -64 2 -131 34 -75 35 -157 111 -189 175 -30 58 -49 149 -50 238
-1 71 1 80 29 120 26 35 38 43 76 48 24 4 54 12 65 18 11 6 45 11 76 11 30 0
58 5 61 10 3 6 15 10 25 10 24 0 68 45 82 83 8 21 16 27 29 24 14 -4 21 2 25
21 10 43 16 46 30 21 13 -24 13 -24 14 10 0 39 20 101 32 101 4 0 18 -12 31
-26 l24 -26 -19 89 c-30 140 -36 212 -27 311 9 96 46 223 82 282 l22 35 5
-125 c5 -118 8 -132 53 -254z m857 -100 c0 -2 -7 -7 -16 -10 -8 -3 -12 -2 -9
4 6 10 25 14 25 6z m-150 -103 c-11 -17 -11 -17 -6 0 3 10 6 24 7 30 0 9 2 9
5 0 3 -7 0 -20 -6 -30z m210 -173 c0 -5 -7 -11 -16 -14 -8 -3 -12 -2 -9 4 3 5
1 20 -6 32 -12 23 -12 23 10 4 11 -11 21 -22 21 -26z m84 -322 c21 -29 20 -38
-3 -38 -22 0 -39 -19 -19 -21 7 -1 16 -1 19 -1 4 1 9 -8 12 -19 4 -15 2 -19
-10 -15 -8 3 -23 6 -34 6 -13 0 -17 5 -12 17 5 14 1 15 -29 10 -30 -4 -37 -2
-41 14 -3 10 4 30 15 44 26 33 80 35 102 3z m201 -47 c3 -5 2 -12 -3 -15 -5
-3 -9 1 -9 9 0 17 3 19 12 6z m-85 -21 c0 -5 -7 -7 -15 -4 -8 4 -15 8 -15 10
0 2 7 4 15 4 8 0 15 -4 15 -10z m200 -51 c-16 -28 -32 -24 -18 6 6 13 15 22
19 19 5 -3 4 -14 -1 -25z m-84 -18 c-8 -7 -28 -14 -44 -15 -17 -1 -30 -5 -29
-10 1 -5 -3 -10 -10 -13 -6 -2 -10 4 -9 14 2 10 13 19 27 21 13 2 27 7 31 11
4 4 17 7 28 7 17 0 18 -2 6 -15z m155 -61 c90 -13 148 -40 207 -96 38 -37 43
-46 32 -59 -11 -13 -32 -15 -139 -10 l-126 7 35 -32 c81 -73 186 -179 232
-234 60 -72 88 -133 125 -274 25 -94 28 -125 28 -257 0 -150 0 -150 -38 -244
-69 -173 -172 -296 -338 -404 -104 -68 -147 -89 -229 -116 -124 -41 -196 -54
-330 -60 l-135 -6 35 -17 c20 -10 27 -18 18 -18 -10 0 -15 -6 -13 -12 3 -7
-14 -25 -37 -39 -42 -26 -47 -26 -172 -22 -99 3 -140 8 -172 22 -37 17 -95 26
-129 21 -5 0 -83 -1 -173 -1 -140 0 -167 2 -190 17 -15 10 -33 19 -41 20 -13
3 -31 22 -31 35 0 20 58 38 155 48 60 6 112 11 117 11 16 0 7 37 -13 56 -52
46 -75 165 -47 245 33 95 120 184 192 196 20 3 36 7 36 8 0 1 -7 19 -15 40
-20 47 -12 104 26 203 51 129 48 240 -10 352 -16 30 -32 65 -35 78 -7 21 -6
21 21 11 15 -5 42 -23 58 -38 17 -15 42 -35 57 -44 16 -10 39 -40 53 -67 24
-48 50 -177 41 -209 -3 -9 -8 -43 -11 -76 -4 -33 -11 -65 -16 -71 -15 -18 -20
-84 -6 -84 9 0 8 -3 -1 -8 -41 -26 -60 -122 -25 -122 8 0 17 -9 20 -20 3 -11
10 -20 17 -20 6 0 0 -10 -14 -21 -14 -11 -20 -18 -15 -16 6 3 17 2 24 -3 11
-6 11 -13 0 -38 -7 -17 -17 -28 -21 -26 -4 3 -5 -2 -2 -10 3 -9 10 -13 15 -10
5 3 9 -7 10 -23 0 -26 2 -26 19 13 24 55 95 93 140 74 24 -10 32 -10 44 3 8 8
13 16 11 18 -2 2 16 4 40 3 33 0 50 5 69 23 14 13 26 28 26 33 0 6 12 10 26
10 14 0 23 -4 19 -10 -3 -5 1 -10 10 -10 9 0 13 5 10 10 -3 6 -1 10 4 10 6 0
11 -7 11 -15 0 -8 6 -12 13 -9 36 13 38 195 2 234 -10 11 -19 31 -20 44 -1 24
0 24 25 9 34 -20 89 -101 100 -147 4 -20 4 -64 0 -98 -4 -35 -6 -65 -4 -67 1
-1 40 -4 86 -6 57 -1 88 2 98 11 9 7 34 26 57 41 48 33 136 144 165 211 44 98
24 222 -57 357 -38 62 -35 95 5 55 18 -18 24 -19 37 -9 12 11 17 10 24 -3 5
-8 22 -21 39 -28 16 -7 31 -19 31 -26 1 -8 3 -18 4 -24 1 -5 3 -13 4 -17 0 -3
10 2 21 12 10 9 25 15 33 12 10 -4 13 1 9 19 -2 14 0 24 7 24 6 0 11 9 11 20
0 24 -6 25 -26 5 -9 -8 -26 -15 -40 -15 -21 0 -24 5 -24 33 0 38 22 73 38 63
7 -4 12 -16 12 -27 0 -26 20 -32 56 -18 16 6 23 13 16 16 -6 3 -10 9 -6 14 3
5 -1 9 -8 9 -8 0 -6 5 5 11 9 5 17 17 17 26 0 13 2 13 16 2 15 -12 16 -11 9
11 -10 34 -12 35 -31 16 -15 -16 -18 -16 -36 1 -14 12 -18 27 -15 47 4 28 -17
86 -31 86 -11 0 -31 50 -26 64 3 8 -1 16 -9 19 -10 4 -13 0 -10 -12 4 -15 -1
-18 -23 -18 -26 0 -27 0 -9 13 10 8 14 14 8 14 -6 0 -13 9 -16 20 -4 15 0 20
16 21 l22 2 -22 4 c-12 2 -25 14 -29 26 -7 20 -8 19 -16 -10 -8 -33 -30 -43
-44 -22 -3 6 -1 21 6 34 11 20 10 30 -9 65 -25 48 -28 68 -6 50 12 -10 15 -10
15 4 0 21 -52 56 -58 38 -2 -6 -8 -12 -13 -12 -6 0 -7 6 -2 13 4 6 8 16 8 21
0 5 9 12 20 16 19 7 19 7 -3 21 -29 18 -28 33 2 25 13 -3 56 -10 97 -16z
m-356 -98 c-3 -3 -11 0 -18 7 -9 10 -8 11 6 5 10 -3 15 -9 12 -12z m260 -2
c-3 -5 -11 -10 -16 -10 -6 0 -7 5 -4 10 3 6 11 10 16 10 6 0 7 -4 4 -10z
m-1368 -244 c0 -8 -6 -12 -14 -9 -7 3 -10 9 -7 14 8 14 21 11 21 -5z m198 -6
c-3 -5 -16 -10 -28 -10 -18 0 -19 2 -7 10 20 13 43 13 35 0z m1305 0 c0 -5 -2
-10 -4 -10 -3 0 -8 5 -11 10 -3 6 -1 10 4 10 6 0 11 -4 11 -10z m8 -63 c3 -23
0 -28 -15 -25 -11 2 -19 14 -21 31 -3 23 0 28 15 25 11 -2 19 -14 21 -31z
m-1315 16 c-7 -2 -21 -2 -30 0 -10 3 -4 5 12 5 17 0 24 -2 18 -5z m207 -4 c0
-3 -14 -18 -31 -32 -18 -15 -26 -28 -20 -32 6 -3 11 -1 11 4 0 16 17 13 23 -3
5 -12 -6 -14 -46 -7 -4 0 -7 7 -5 15 2 8 -6 22 -17 30 -12 10 -14 14 -5 11 9
-3 24 0 33 8 19 13 57 18 57 6z m-196 -41 c12 -13 31 -28 42 -34 17 -10 17
-11 -6 -9 -14 1 -41 3 -60 5 -33 2 -33 3 -10 10 l25 8 -25 1 c-20 1 -22 3 -10
11 13 9 13 11 0 20 -13 8 -12 10 4 10 10 0 29 -10 40 -22z m106 -32 c0 -10
-56 5 -69 19 -15 15 -14 16 3 9 15 -6 17 -4 11 6 -5 8 6 4 23 -9 18 -12 32
-24 32 -25z m116 18 c-11 -7 -22 -12 -25 -9 -2 3 4 12 15 19 10 8 21 12 24 9
3 -2 -4 -11 -14 -19z m1054 -59 c0 -8 -7 -15 -16 -15 -14 0 -14 3 -4 15 7 8
14 15 16 15 2 0 4 -7 4 -15z m-600 -489 c0 -3 -4 -8 -10 -11 -5 -3 -10 -1 -10
4 0 6 5 11 10 11 6 0 10 -2 10 -4z"/>
<path d="M3105 3099 c-25 -55 -86 -109 -121 -109 -8 0 -14 -5 -14 -11 0 -6 -6
-9 -14 -6 -8 3 -22 -10 -36 -35 -17 -30 -25 -37 -31 -27 -7 11 -9 11 -9 1 0
-7 -4 -11 -9 -8 -5 4 -7 -3 -4 -14 4 -15 0 -20 -16 -20 -13 0 -19 -5 -15 -14
3 -8 -2 -16 -13 -19 -14 -3 -12 -5 9 -11 35 -10 82 12 86 42 3 18 7 20 23 12
10 -6 19 -7 19 -3 0 4 23 21 50 38 28 16 50 33 50 37 0 5 11 13 24 17 15 6 29
25 40 58 26 73 29 90 18 109 -9 16 -14 10 -37 -37z m-162 -154 c-3 -9 -8 -14
-10 -11 -3 3 -2 9 2 15 9 16 15 13 8 -4z"/>
<path d="M2160 3061 c0 -6 4 -13 10 -16 6 -3 7 1 4 9 -7 18 -14 21 -14 7z"/>
<path d="M1390 3001 c0 -17 -5 -33 -11 -37 -7 -4 -9 -21 -5 -44 4 -24 1 -43
-9 -56 -10 -13 -14 -15 -15 -5 0 8 -2 12 -5 9 -3 -3 2 -36 11 -74 8 -38 14
-84 12 -101 -2 -18 -3 -33 -2 -33 1 0 14 24 29 53 15 28 40 73 57 99 33 52 33
54 -9 156 -28 66 -53 82 -53 33z"/>
<path d="M2839 2934 c-13 -15 -18 -25 -10 -22 13 4 49 48 39 48 -2 0 -15 -12
-29 -26z"/>
<path d="M2890 2940 c0 -5 5 -10 10 -10 6 0 10 5 10 10 0 6 -4 10 -10 10 -5 0
-10 -4 -10 -10z"/>
<path d="M1596 2899 c-8 -41 -8 -49 2 -49 4 0 9 18 10 40 3 48 -3 52 -12 9z"/>
<path d="M2920 2815 c0 -8 4 -15 9 -15 5 0 11 7 15 15 3 9 0 15 -9 15 -8 0
-15 -7 -15 -15z"/>
<path d="M3080 2814 c0 -9 -5 -12 -12 -8 -7 4 -10 4 -6 -1 4 -4 3 -14 -3 -22
-6 -7 -8 -13 -4 -13 4 0 2 -7 -5 -15 -7 -9 -10 -18 -7 -21 3 -3 17 17 31 45
14 28 21 51 16 51 -6 0 -10 -7 -10 -16z"/>
<path d="M2895 2810 c-3 -5 -1 -10 4 -10 6 0 11 5 11 10 0 6 -2 10 -4 10 -3 0
-8 -4 -11 -10z"/>
<path d="M1655 2616 c-90 -44 -131 -96 -156 -196 -9 -36 -17 -54 -18 -40 0 14
6 46 14 73 14 46 14 47 -5 37 -11 -6 -20 -18 -20 -26 0 -9 -5 -12 -12 -8 -10
6 -10 4 0 -7 21 -23 14 -91 -13 -131 -29 -42 -26 -87 6 -95 12 -3 19 -14 19
-29 0 -13 9 -33 20 -44 16 -16 24 -18 50 -9 40 14 49 30 12 23 -31 -6 -72 9
-72 28 0 6 6 6 16 -3 13 -10 17 -10 25 2 5 8 6 20 4 28 -5 11 -3 12 10 1 11
-9 12 -15 5 -20 -7 -5 -6 -11 5 -20 12 -10 15 -10 15 0 0 7 15 1 35 -15 28
-21 46 -26 88 -26 28 0 63 4 77 10 24 10 23 11 -10 9 -77 -3 -116 2 -100 12 8
5 27 10 41 10 25 0 59 27 59 46 0 5 -4 3 -9 -5 -10 -16 -31 -6 -31 14 0 9 8
14 21 12 18 -2 25 8 42 57 11 32 22 54 26 50 7 -11 71 -12 71 -2 0 5 7 8 15 8
28 0 11 -83 -30 -146 -24 -37 -23 -37 18 9 46 50 64 94 74 175 6 55 -24 151
-59 190 -53 57 -149 68 -233 28z m103 -72 c-4 -3 2 -14 13 -25 10 -10 19 -28
19 -39 0 -23 -31 -41 -38 -21 -3 9 -7 9 -18 0 -12 -10 -18 -8 -29 7 -21 27
-14 56 15 71 26 13 48 17 38 7z m-298 -304 c0 -5 -5 -10 -11 -10 -5 0 -7 5 -4
10 3 6 8 10 11 10 2 0 4 -4 4 -10z"/>
<path d="M2217 2613 c-4 -3 -7 -11 -7 -17 0 -6 5 -5 12 2 6 6 9 14 7 17 -3 3
-9 2 -12 -2z"/>
<path d="M2401 2544 c0 -11 3 -14 6 -6 3 7 2 16 -1 19 -3 4 -6 -2 -5 -13z"/>
<path d="M2826 2465 c-4 -12 2 -15 32 -14 21 1 29 3 17 6 -11 3 -25 9 -31 14
-8 6 -14 4 -18 -6z"/>
<path d="M2770 2439 c-22 -18 -22 -19 -3 -10 12 6 25 16 28 21 9 15 3 12 -25
-11z"/>
<path d="M1158 2413 c7 -3 16 -2 19 1 4 3 -2 6 -13 5 -11 0 -14 -3 -6 -6z"/>
<path d="M1345 2370 c3 -5 -1 -10 -10 -10 -9 0 -13 -5 -10 -10 5 -8 11 -7 21
1 17 14 18 29 3 29 -5 0 -7 -4 -4 -10z"/>
<path d="M1117 2344 c7 -18 46 -19 41 -1 -3 6 -14 12 -25 13 -14 1 -20 -3 -16
-12z"/>
<path d="M991 2326 c-15 -18 -6 -23 52 -30 53 -7 66 12 22 32 -34 16 -60 15
-74 -2z"/>
<path d="M1276 2293 c-4 -9 -1 -20 6 -25 21 -13 48 -9 55 7 7 19 5 20 -28 29
-20 4 -29 1 -33 -11z"/>
<path d="M1000 2260 c-19 -10 -39 -16 -44 -13 -5 4 -6 1 -3 -4 8 -12 -43 -33
-79 -33 -25 0 -39 -28 -29 -60 8 -26 49 -26 76 1 11 11 18 27 15 37 -6 18 -2
21 73 58 24 12 39 24 34 27 -4 3 -24 -3 -43 -13z"/>
<path d="M1060 2270 c0 -5 5 -10 10 -10 6 0 10 5 10 10 0 6 -4 10 -10 10 -5 0
-10 -4 -10 -10z"/>
<path d="M2020 2260 c0 -5 5 -10 10 -10 6 0 10 5 10 10 0 6 -4 10 -10 10 -5 0
-10 -4 -10 -10z"/>
<path d="M2163 2256 c-27 -13 -29 -24 -7 -33 19 -7 53 23 39 35 -6 5 -20 4
-32 -2z"/>
<path d="M908 2233 c7 -3 16 -2 19 1 4 3 -2 6 -13 5 -11 0 -14 -3 -6 -6z"/>
<path d="M1003 2175 c-68 -33 -91 -51 -54 -42 22 6 23 4 17 -36 l-7 -42 35 35
c20 18 36 41 36 51 0 9 10 23 21 31 46 30 11 32 -48 3z"/>
<path d="M2085 2190 c-3 -6 1 -7 9 -4 18 7 21 14 7 14 -6 0 -13 -4 -16 -10z"/>
<path d="M1140 2173 c0 -13 -3 -14 -12 -5 -19 19 -37 14 -31 -8 4 -15 11 -18
29 -14 21 5 24 3 24 -19 0 -22 4 -25 27 -24 26 2 27 0 27 -46 1 -37 -1 -44
-10 -32 -6 8 -14 12 -17 8 -4 -3 -7 -1 -7 5 0 7 5 12 10 12 6 0 10 9 10 20 0
18 -3 19 -20 10 -27 -15 -25 -51 5 -86 23 -27 29 -39 27 -56 -1 -3 5 -9 14
-12 10 -4 13 -1 9 7 -4 6 1 3 10 -8 13 -16 17 -17 24 -6 5 8 7 21 3 29 -3 10
-1 13 7 8 7 -5 10 -2 9 6 -2 7 -11 16 -21 20 -24 10 -41 51 -33 82 5 20 13 26
36 27 47 2 50 3 60 19 14 21 12 37 -3 43 -9 3 -13 -3 -13 -17 1 -14 -5 -21
-16 -20 -11 1 -15 -3 -11 -10 3 -6 -6 0 -21 14 -15 14 -31 24 -34 24 -16 -3
-53 17 -58 31 -8 20 -24 19 -24 -2z m91 -200 c13 -16 12 -17 -3 -4 -10 7 -18
15 -18 17 0 8 8 3 21 -13z"/>
<path d="M1353 2141 c3 -11 1 -24 -4 -27 -15 -9 -10 -24 9 -25 10 0 12 -3 4
-6 -23 -9 -1 -23 26 -16 24 6 52 25 52 36 0 14 -41 47 -65 53 -25 6 -28 5 -22
-15z"/>
<path d="M925 2111 c-7 -12 12 -24 25 -16 11 7 4 25 -10 25 -5 0 -11 -4 -15
-9z"/>
<path d="M1009 2083 c-13 -16 -12 -17 4 -4 16 13 21 21 13 21 -2 0 -10 -8 -17
-17z"/>
<path d="M1090 2069 c-7 -11 -9 -24 -5 -27 3 -3 8 4 12 16 3 12 10 19 16 15 6
-3 7 -1 3 5 -10 16 -14 15 -26 -9z"/>
<path d="M906 2064 c-9 -24 -7 -28 7 -15 8 6 18 7 23 3 4 -4 2 1 -5 11 -16 21
-17 21 -25 1z"/>
<path d="M1650 2071 c8 -5 33 -12 55 -16 26 -4 35 -3 25 3 -8 5 -33 12 -55 16
-26 4 -35 3 -25 -3z"/>
<path d="M1013 2062 c-13 -2 -23 -9 -23 -17 0 -7 -7 -15 -15 -19 -8 -3 -15
-11 -15 -18 0 -9 3 -9 11 -1 8 8 19 9 37 2 28 -11 45 0 56 38 7 23 5 23 -51
15z"/>
<path d="M1340 2048 c0 -5 11 -8 24 -8 13 0 26 -5 28 -12 2 -6 12 -9 21 -5 31
12 8 34 -34 33 -21 0 -39 -4 -39 -8z"/>
<path d="M1067 1993 c-2 -21 0 -47 6 -57 8 -17 10 -17 18 -3 10 18 1 97 -11
97 -4 0 -10 -17 -13 -37z"/>
<path d="M1785 1955 c16 -7 35 -11 42 -8 25 10 12 18 -30 19 l-42 1 30 -12z"/>
<path d="M960 1950 c0 -16 46 -41 64 -34 15 6 14 8 -6 18 -40 21 -58 26 -58
16z"/>
<path d="M1120 1944 c1 -12 39 -61 40 -51 0 5 -9 20 -20 34 -11 14 -20 22 -20
17z"/>
<path d="M3070 1514 c0 -8 5 -12 10 -9 6 4 8 11 5 16 -9 14 -15 11 -15 -7z"/>
<path d="M1800 1501 c0 -5 5 -13 10 -16 6 -3 10 -2 10 4 0 5 -4 13 -10 16 -5
3 -10 2 -10 -4z"/>
<path d="M3090 1485 c-7 -9 -11 -17 -9 -20 3 -2 10 5 17 15 14 24 10 26 -8 5z"/>
<path d="M3030 1479 c0 -6 -9 -9 -20 -6 -11 3 -20 2 -20 -1 0 -15 16 -27 36
-29 17 -2 20 2 16 22 -4 26 -12 34 -12 14z"/>
<path d="M2900 1391 c0 -5 7 -15 17 -22 15 -13 15 -12 4 9 -12 23 -21 28 -21
13z"/>
<path d="M3000 1243 c0 -21 3 -24 9 -14 5 8 7 20 4 28 -8 21 -13 15 -13 -14z"/>
<path d="M3060 1263 c0 -5 5 -15 10 -23 8 -12 10 -11 10 8 0 12 -4 22 -10 22
-5 0 -10 -3 -10 -7z"/>
<path d="M1755 435 c-16 -14 -36 -25 -42 -25 -7 0 -13 -4 -13 -8 0 -5 -29 -8
-65 -8 -38 0 -70 -5 -78 -13 -16 -16 232 -7 264 9 l21 12 -28 29 c-15 16 -28
29 -28 29 -1 -1 -14 -12 -31 -25z"/>
<path d="M1715 1740 c-13 -6 -15 -9 -5 -9 8 0 22 4 30 9 18 12 2 12 -25 0z"/>
</g>
</svg>
